
<svg xmlns="http://www.w3.org/2000/svg" version="1.1" xmlns:xlink="http://www.w3.org/1999/xlink" preserveAspectRatio="none" x="0px" y="0px" width="128px" height="128px" viewBox="0 0 128 128">
<defs>
<linearGradient id="Gradient_1" gradientUnits="userSpaceOnUse" x1="55.2375" y1="82.0875" x2="39.5625" y2="77.9125" spreadMethod="pad">
<stop  offset="0%" stop-color="#999999"/>

<stop  offset="100%" stop-color="#CCCCCC"/>
</linearGradient>

<linearGradient id="Gradient_2" gradientUnits="userSpaceOnUse" x1="73.9125" y1="82.2" x2="88.1875" y2="78.39999999999999" spreadMethod="pad">
<stop  offset="0%" stop-color="#999999"/>

<stop  offset="100%" stop-color="#CCCCCC"/>
</linearGradient>

<g id="Layer0_0_FILL">
<path fill="#CCCCCC" stroke="none" d="
M 85.75 103.8
Q 86.25 104.05 86.55 104.7 86.8 105.15 86.95 106.3 87 107.25 87 108.4
L 87 117.15 92.55 117.15 92.55 105.6
Q 92.55 102.4 91.1 100.7 89.65 98.95 86.95 98.95 85.35 98.95 84.1 99.65 82.85 100.2 81.45 101.4
L 81.45 92.6 75.95 92.6 75.95 117.15 81.45 117.15 81.45 104.65
Q 82.25 104.05 82.9 103.8 83.65 103.5 84.3 103.5 85.2 103.5 85.75 103.8
M 113.15 99.45
L 107.45 99.45 104 110.55 100.25 99.45 94.45 99.45 100.95 116.75 98.25 123.65 104.2 123.65 113.15 99.45
M 30.9 7.6
Q 19 18.8 14.45 35.35 8.5 64.7 28.2 79.5 29.55 80.4 30.85 81.25
L 38.95 71.35
Q 36.8 69.8 34.75 67.9 24.6 55.2 28.95 36.05 33.35 18.75 49.9 7.6
L 30.9 7.6
M 114.4 44.75
Q 114.95 25.25 97.75 12.9 80.1 2.8 57.2 5.65
L 57.2 77.3 57.2 88.9 57.2 117.05 70.95 117.05 70.95 88.9 70.95 77.3 70.95 16.95
Q 99.25 18.6 100.35 44.75 100.3 63.55 88.8 71.6
L 95.05 81.6
Q 98.25 79.7 101.35 77.3 115.55 64.55 114.4 44.75 Z"/>

<path fill="url(#Gradient_1)" stroke="none" d="
M 38.95 71.35
L 30.85 81.25
Q 42.05 88.25 57.2 88.9
L 57.2 77.3
Q 47.1 77.05 38.95 71.35 Z"/>

<path fill="url(#Gradient_2)" stroke="none" d="
M 95.05 81.6
L 88.8 71.6
Q 81.95 76.35 70.95 77.3
L 70.95 88.9
Q 83.45 88.45 95.05 81.6 Z"/>
</g>
</defs>

<g transform="matrix( 1, 0, 0, 1, 0,0) ">
<use xlink:href="#Layer0_0_FILL"/>
</g>
</svg>
