
<svg xmlns="http://www.w3.org/2000/svg" version="1.1" xmlns:xlink="http://www.w3.org/1999/xlink" preserveAspectRatio="none" x="0px" y="0px" width="128px" height="128px" viewBox="0 0 128 128">
<defs>
<linearGradient id="Gradient_1" gradientUnits="userSpaceOnUse" x1="55.2375" y1="83.8375" x2="39.5625" y2="79.6625" spreadMethod="pad">
<stop  offset="0%" stop-color="#999999"/>

<stop  offset="100%" stop-color="#CCCCCC"/>
</linearGradient>

<linearGradient id="Gradient_2" gradientUnits="userSpaceOnUse" x1="73.9125" y1="83.95" x2="88.1875" y2="80.14999999999999" spreadMethod="pad">
<stop  offset="0%" stop-color="#999999"/>

<stop  offset="100%" stop-color="#CCCCCC"/>
</linearGradient>

<g id="Layer0_0_FILL">
<path fill="#999999" stroke="none" d="
M 91.1 102.45
Q 89.65 100.7 86.95 100.7 85.35 100.7 84.1 101.4 82.85 101.95 81.45 103.15
L 81.45 94.35 75.95 94.35 75.95 118.9 81.45 118.9 81.45 106.4
Q 82.25 105.8 82.9 105.55 83.65 105.25 84.3 105.25 85.2 105.25 85.75 105.55 86.25 105.8 86.55 106.45 86.8 106.9 86.95 108.05 87 109 87 110.15
L 87 118.9 92.55 118.9 92.55 107.35
Q 92.55 104.15 91.1 102.45
M 113.15 101.2
L 107.45 101.2 104 112.3 100.25 101.2 94.45 101.2 100.95 118.5 98.25 125.4 104.2 125.4 113.15 101.2 Z"/>

<path fill="url(#Gradient_1)" stroke="none" d="
M 38.95 73.1
L 30.85 83
Q 42.05 90 57.2 90.65
L 57.2 79.05
Q 47.1 78.8 38.95 73.1 Z"/>

<path fill="#CCCCCC" stroke="none" d="
M 30.9 9.35
Q 19 20.55 14.45 37.1 8.5 66.45 28.2 81.25 29.55 82.15 30.85 83
L 38.95 73.1
Q 36.8 71.55 34.75 69.65 24.6 56.95 28.95 37.8 33.35 20.5 49.9 9.35
L 30.9 9.35
M 114.4 46.5
Q 114.95 27 97.75 14.65 80.1 4.55 57.2 7.4
L 57.2 79.05 57.2 90.65 57.2 118.8 70.95 118.8 70.95 90.65 70.95 79.05 70.95 18.7
Q 99.25 20.35 100.35 46.5 100.3 65.3 88.8 73.35
L 95.05 83.35
Q 98.25 81.45 101.35 79.05 115.55 66.3 114.4 46.5 Z"/>

<path fill="url(#Gradient_2)" stroke="none" d="
M 95.05 83.35
L 88.8 73.35
Q 81.95 78.1 70.95 79.05
L 70.95 90.65
Q 83.45 90.2 95.05 83.35 Z"/>
</g>
</defs>

<g transform="matrix( 1, 0, 0, 1, 0,0) ">
<use xlink:href="#Layer0_0_FILL"/>
</g>
</svg>
